<?xml version="1.0" encoding="UTF-8" standalone="no"?>
<!DOCTYPE svg PUBLIC "-//W3C//DTD SVG 1.1//EN" "http://www.w3.org/Graphics/SVG/1.1/DTD/svg11.dtd">
<svg width="100%" height="100%" viewBox="0 0 1964 2097" version="1.1" xmlns="http://www.w3.org/2000/svg" xmlns:xlink="http://www.w3.org/1999/xlink" xml:space="preserve" xmlns:serif="http://www.serif.com/" style="fill-rule:evenodd;clip-rule:evenodd;stroke-miterlimit:10;">
    <g transform="matrix(1,0,0,1,-488.662,492.48)">
        <g transform="matrix(0.000245638,-1,1,0.000245638,1215.89,2604.16)">
            <path d="M1155,130.7C1073.6,-91.7 1585.4,-300 2118.5,-302.2C2651.6,-304.4 3051.2,-112.3 3085.6,122.7C3159,624.8 2550.9,1401.9 2122.1,555.6C1841.2,1.4 1200.2,254.3 1155,130.7ZM1155.7,106.5C1080.6,-118.2 1598.2,-311.9 2131.1,-299C2664.1,-286.1 3058.1,-82.8 3085.8,153.1C3145,657.1 2515.2,1416.7 2110.4,558.6C1845.3,-3.4 1197.5,231.3 1155.7,106.5ZM1157.2,82.3C1088.5,-144.4 1611.3,-323.4 2143.7,-295.4C2676.1,-267.4 3064.1,-53.1 3085.1,183.5C3130,689 2479,1430.4 2098.6,561.2C1849.6,-8.1 1195.4,208.2 1157.2,82.3ZM1159.3,58.2C1097,-170.3 1624.6,-334.5 2156,-291.5C2687.4,-248.5 3069.3,-23.3 3083.6,213.8C3114.2,720.3 2442.5,1443.1 2086.9,563.5C1854,-12.6 1193.9,185.1 1159.3,58.2ZM1162.1,34.1C1106.3,-196.1 1638.4,-345.3 2168.3,-287.3C2698.2,-229.3 3073.6,6.7 3081.2,244C3097.5,751.2 2405.6,1454.7 2075,565.4C1858.5,-17 1193.1,162 1162.1,34.1ZM1165.6,10.1C1116.3,-221.6 1652.4,-355.6 2180.5,-282.7C2708.6,-209.8 3077.1,36.7 3078.1,274.2C3080.1,781.7 2368.5,1465.3 2063.2,567C1863.2,-21.3 1193,138.8 1165.6,10.1ZM1169.8,-13.8C1127.1,-246.8 1666.7,-365.6 2192.6,-277.8C2718.5,-190 3079.8,66.9 3074,304.3C3061.6,811.6 2331.1,1474.9 2051.2,568.3C1867.9,-25.4 1193.5,115.7 1169.8,-13.8ZM1174.6,-37.5C1138.5,-271.6 1681.3,-375.1 2204.4,-272.5C2727.5,-169.9 3081.5,97.1 3069,334.3C3042.3,841.1 2293.3,1483.4 2039.2,569.3C1872.8,-29.4 1194.6,92.6 1174.6,-37.5ZM1180.1,-61.1C1150.6,-296.1 1696.1,-384.3 2216.2,-266.9C2736.3,-149.5 3082.5,127.4 3063.3,364.1C3022.3,869.9 2255.4,1490.8 2027.2,569.9C1877.8,-33.3 1196.5,69.5 1180.1,-61.1ZM1186.3,-84.5C1163.5,-320.3 1711.3,-393 2227.8,-260.9C2744.3,-128.8 3082.7,157.7 3056.8,393.8C3001.5,898.2 2217.4,1497.2 2015.3,570.2C1882.9,-37 1198.9,46.5 1186.3,-84.5ZM1193.1,-107.8C1177,-344.1 1726.6,-401.3 2239.1,-254.7C2751.6,-108.1 3081.8,187.9 3049.2,423.2C2979.6,925.9 2178.9,1502.4 2003.2,570.1C1888.1,-40.6 1202.1,23.5 1193.1,-107.8ZM1200.6,-130.8C1191.2,-367.5 1742.2,-409.1 2250.4,-248.1C2758.6,-87.1 3080.2,218.1 3041,452.4C2957.3,952.9 2140.5,1506.6 1991.2,569.7C1893.4,-44 1205.8,0.7 1200.6,-130.8ZM1208.7,-153.7C1206,-390.6 1757.9,-416.6 2261.4,-241.2C2764.9,-65.8 3077.7,248.3 3031.9,481.4C2934,979.3 2102,1509.7 1979.2,568.9C1898.8,-47.3 1210.2,-22.1 1208.7,-153.7ZM1217.5,-176.3C1221.5,-413.1 1773.9,-423.6 2272.2,-234C2770.5,-44.4 3074.4,278.4 3022,510C2910.1,1005 2063.4,1511.6 1967.3,567.7C1904.3,-50.4 1215.3,-44.7 1217.5,-176.3ZM1226.9,-198.6C1237.6,-435.2 1790.1,-430 2282.8,-226.5C2775.5,-23 3070.1,308.4 3011.2,538.4C2885.3,1030 2024.7,1512.5 1955.3,566.3C1909.9,-53.4 1221,-67.1 1226.9,-198.6ZM1236.9,-220.6C1254.2,-456.8 1806.4,-436 2293.2,-218.6C2780,-1.2 3065.1,338.3 2999.7,566.6C2860,1054.5 1986,1512.4 1943.4,564.6C1915.6,-56.2 1227.3,-89.4 1236.9,-220.6ZM1247.6,-242.4C1271.6,-478.1 1823,-441.6 2303.4,-210.6C2783.8,20.4 3059.3,367.9 2987.4,594.3C2834,1078 1947.4,1511.1 1931.6,562.5C1921.3,-58.8 1234.3,-111.5 1247.6,-242.4ZM1258.9,-263.9C1289.6,-498.8 1839.7,-446.8 2313.4,-202.2C2787.1,42.4 3052.6,397.4 2974.4,621.7C2807.4,1100.9 1908.9,1508.7 1919.9,560C1927.1,-61.3 1241.8,-133.4 1258.9,-263.9ZM1270.7,-285C1308,-518.9 1856.4,-451.4 2323,-193.5C2789.6,64.4 3045,426.8 2960.5,648.8C2780,1123.1 1870.3,1505.4 1908.2,557.3C1933,-63.6 1250,-155 1270.7,-285ZM1283.2,-305.8C1327.1,-538.6 1873.4,-455.6 2332.5,-184.6C2791.6,86.4 3036.6,455.9 2945.9,675.4C2752,1144.4 1831.9,1500.8 1896.6,554.2C1938.9,-65.7 1258.8,-176.4 1283.2,-305.8ZM1296.2,-326.2C1346.7,-557.6 1890.4,-459.2 2341.7,-175.4C2793,108.4 3027.4,484.7 2930.5,701.6C2723.5,1164.9 1793.7,1495.2 1885,550.8C1944.9,-67.7 1268.2,-197.6 1296.2,-326.2ZM1309.9,-346.2C1366.9,-576.1 1907.6,-462.4 2350.7,-165.9C2793.8,130.6 3017.5,513.3 2914.5,727.3C2694.4,1184.6 1755.7,1488.4 1873.7,547C1951,-69.5 1278.2,-218.5 1309.9,-346.2ZM1324,-365.9C1387.5,-594.1 1924.7,-465.1 2359.3,-156.3C2793.9,152.5 3006.6,541.5 2897.6,752.5C2664.7,1203.4 1717.7,1480.5 1862.3,542.9C1957.1,-71.2 1288.8,-239.1 1324,-365.9ZM1338.8,-385.1C1408.7,-611.4 1942.1,-467.3 2367.8,-146.3C2793.5,174.7 2995.1,569.5 2880.1,777.4C2634.5,1221.5 1680.1,1471.8 1851.1,538.6C1963.2,-72.6 1299.9,-259.4 1338.8,-385.1ZM1354,-403.9C1430.2,-628.2 1959.4,-469 2375.8,-136.1C2792.2,196.8 2982.7,597.2 2861.9,801.7C2603.9,1238.7 1642.8,1461.9 1840.1,533.9C1969.4,-73.9 1311.7,-279.3 1354,-403.9ZM1369.8,-422.3C1452.4,-644.3 1976.8,-470.3 2383.6,-125.7C2790.4,218.9 2969.5,624.5 2843,825.5C2572.7,1255 1605.7,1451 1829.2,528.9C1975.6,-75 1324,-299 1369.8,-422.3ZM1386.1,-440.2C1474.9,-659.8 1994.2,-471 2391.1,-115.1C2788,240.8 2955.5,651.3 2823.4,848.7C2541.1,1270.4 1568.9,1438.9 1818.4,523.6C1981.9,-76 1336.8,-318.2 1386.1,-440.2ZM1402.9,-457.7C1497.9,-674.7 2011.6,-471.3 2398.3,-104.3C2785,262.7 2940.9,677.8 2803.2,871.3C2509.1,1284.8 1532.5,1425.8 1807.8,517.9C1988.1,-76.7 1350.2,-337.1 1402.9,-457.7ZM1420.2,-474.7C1521.3,-688.9 2029.1,-471.1 2405.2,-93.3C2781.3,284.5 2925.4,703.8 2782.4,893.4C2476.7,1298.5 1496.5,1411.8 1797.4,512C1994.4,-77.3 1364.1,-355.7 1420.2,-474.7ZM1438,-491.2C1545.1,-702.5 2046.5,-470.4 2411.9,-82.1C2777.3,306.2 2909.4,729.4 2761,914.8C2444,1311.1 1461,1396.6 1787.1,505.7C2000.7,-77.7 1378.5,-373.8 1438,-491.2ZM1456.2,-507.1C1569.2,-715.3 2063.9,-469.1 2418.1,-70.6C2772.3,327.9 2892.4,754.6 2738.9,935.8C2410.8,1322.9 1425.8,1380.7 1777,499.3C2007,-78 1393.4,-391.5 1456.2,-507.1ZM1474.9,-522.6C1593.8,-727.5 2081.3,-467.4 2424.1,-59.1C2766.9,349.2 2874.9,779.2 2716.3,956C2377.4,1333.7 1391.1,1363.6 1767.1,492.5C2013.3,-78 1408.9,-408.7 1474.9,-522.6ZM1494,-537.5C1618.6,-739 2098.6,-465.2 2429.7,-47.4C2760.8,370.4 2856.6,803.3 2693.1,975.5C2343.7,1343.5 1357,1345.5 1757.4,485.4C2019.7,-77.9 1424.8,-425.6 1494,-537.5ZM1513.5,-551.9C1643.7,-749.8 2115.8,-462.5 2435,-35.5C2754.2,391.5 2837.7,826.9 2669.4,994.5C2309.7,1352.5 1323.3,1326.5 1747.9,478.1C2026,-77.6 1441.1,-441.9 1513.5,-551.9ZM1533.4,-565.7C1669.2,-759.8 2132.9,-459.3 2439.9,-23.5C2746.9,412.3 2818.1,850.1 2645.1,1012.8C2275.4,1360.4 1290.2,1306.7 1738.6,470.6C2032.3,-77.1 1458,-457.8 1533.4,-565.7ZM1553.7,-578.9C1694.9,-769.1 2150,-455.6 2444.5,-11.2C2739,433.2 2797.8,872.6 2620.3,1030.4C2240.9,1367.5 1257.6,1285.8 1729.5,462.7C2038.5,-76.4 1475.2,-473.3 1553.7,-578.9ZM1574.4,-591.6C1720.9,-777.7 2167,-451.5 2448.8,1C2730.6,453.5 2777,894.5 2595.1,1047.1C2206.4,1373.3 1225.7,1263.9 1720.7,454.5C2044.8,-75.6 1492.9,-488.2 1574.4,-591.6ZM1595.4,-603.7C1747.1,-785.6 2183.8,-446.9 2452.7,13.4C2721.6,473.7 2755.5,915.8 2569.3,1063.2C2171.5,1378.3 1194.4,1241.2 1712,446.1C2051,-74.6 1511.1,-502.6 1595.4,-603.7ZM1616.7,-615.1C1773.5,-792.6 2200.4,-441.7 2456.2,26C2712,493.7 2733.4,936.6 2543.1,1078.7C2136.5,1382.4 1163.7,1217.8 1703.6,437.6C2057.2,-73.4 1529.6,-516.5 1616.7,-615.1ZM1638.4,-626C1800.2,-799 2217,-436.2 2459.5,38.6C2702,513.4 2710.8,956.7 2516.6,1093.4C2101.6,1385.5 1133.8,1193.4 1695.5,428.8C2063.4,-72 1548.5,-529.9 1638.4,-626ZM1660.3,-636.3C1826.9,-804.7 2233.3,-430.2 2462.2,51.2C2691.1,532.6 2687.5,976 2489.5,1107.2C2066.4,1387.4 1104.4,1168.1 1687.6,419.7C2069.5,-70.5 1567.8,-542.7 1660.3,-636.3ZM1682.6,-645.9C1853.9,-809.5 2249.5,-423.7 2464.8,64C2680.1,551.7 2663.8,994.8 2462.2,1120.3C2031.4,1388.5 1076,1142 1680,410.4C2075.6,-68.7 1587.4,-555 1682.6,-645.9ZM1705.1,-654.9C1881,-813.6 2265.5,-416.8 2466.9,76.8C2668.3,570.4 2639.6,1012.8 2434.5,1132.6C1996.3,1388.5 1048.2,1115.1 1672.7,400.9C2081.6,-66.9 1607.4,-566.7 1705.1,-654.9ZM1727.8,-663.2C1908.1,-816.9 2281.2,-409.3 2468.6,89.8C2656,588.9 2614.7,1030.4 2406.3,1144.3C1961,1387.7 1021,1087.6 1665.5,391.3C2087.6,-64.8 1627.7,-577.9 1727.8,-663.2ZM1750.8,-670.9C1935.3,-819.4 2296.8,-401.5 2470,102.7C2643.2,606.9 2589.5,1047 2377.9,1155C1925.9,1385.7 994.8,1059.2 1658.7,381.4C2093.5,-62.6 1648.3,-588.4 1750.8,-670.9ZM1774,-678C1962.7,-821.2 2312.2,-393.3 2471.1,115.6C2630,624.5 2563.8,1062.9 2349.3,1164.9C1891,1382.7 969.5,1030 1652.2,371.3C2099.4,-60.2 1669.1,-598.4 1774,-678ZM1797.3,-684.4C1989.9,-822.2 2327.2,-384.6 2471.7,128.6C2616.1,641.8 2537.6,1078.2 2320.3,1174C1856,1378.8 944.8,1000.2 1645.9,361C2105.1,-57.6 1690.3,-607.8 1797.3,-684.4ZM1820.9,-690.1C2017.4,-822.4 2342.2,-375.4 2472,141.7C2601.8,658.8 2511,1092.7 2291.1,1182.4C1821.2,1374 921.1,969.7 1640,350.6C2110.8,-54.9 1711.7,-616.6 1820.9,-690.1ZM1844.6,-695.2C2044.7,-821.9 2356.7,-365.9 2471.9,154.6C2587.1,675.1 2484,1106.4 2261.7,1189.8C1786.6,1368 898.2,938.5 1634.4,340C2116.5,-52 1733.4,-624.8 1844.6,-695.2ZM1868.4,-699.6C2072,-820.6 2371,-355.9 2471.4,167.6C2571.8,691.2 2456.6,1119.3 2232,1196.4C1752,1361.1 876.2,906.7 1629,329.2C2122,-49 1755.3,-632.4 1868.4,-699.6ZM1892.4,-703.3C2099.4,-818.5 2385.1,-345.6 2470.7,180.6C2556.3,706.8 2429,1131.5 2202.3,1202.2C1717.8,1353.3 855.2,874.2 1624,318.3C2127.5,-45.8 1777.4,-639.3 1892.4,-703.3ZM1916.4,-706.4C2126.5,-815.7 2398.8,-334.9 2469.5,193.5C2540.2,721.9 2401,1142.9 2172.3,1207.1C1683.8,1344.4 835,841.2 1619.2,307.2C2132.8,-42.5 1799.6,-645.6 1916.4,-706.4ZM1940.5,-708.7C2153.7,-812 2412.2,-323.7 2467.9,206.5C2523.6,736.7 2372.5,1153.5 2142.2,1211.3C1650,1334.8 815.8,807.8 1614.8,296.1C2138.1,-39 1822.1,-651.3 1940.5,-708.7ZM1964.7,-710.4C2180.7,-807.7 2425.3,-312.2 2466,219.4C2506.7,751 2343.9,1163.4 2112,1214.6C1616.5,1324.1 797.6,773.7 1610.7,284.8C2143.2,-35.3 1844.7,-656.4 1964.7,-710.4ZM1988.9,-711.4C2207.6,-802.5 2438.1,-300.3 2463.7,232.2C2489.3,764.7 2315,1172.3 2081.7,1217C1583.3,1312.4 780.2,739.1 1606.9,273.4C2148.3,-31.6 1867.4,-660.8 1988.9,-711.4ZM2013.1,-711.7C2234.2,-796.6 2450.5,-288.1 2461.1,244.9C2471.7,777.9 2285.9,1180.5 2051.4,1218.5C1550.5,1299.8 764,704 1603.4,261.9C2153.2,-27.6 1890.3,-664.5 2013.1,-711.7ZM2037.4,-711.3C2260.9,-789.9 2462.6,-275.5 2458.1,257.6C2453.6,790.7 2256.5,1187.8 2021.1,1219.3C1518.1,1286.4 748.7,668.6 1600.4,250.4C2158.1,-23.6 1913.2,-667.6 2037.4,-711.3ZM2061.6,-710.3C2287.2,-782.6 2474.4,-262.7 2454.8,270.1C2435.2,802.9 2227,1194.3 1990.7,1219C1486,1271.9 734.4,632.6 1597.5,238.6C2162.8,-19.4 1936.2,-670.1 2061.6,-710.3ZM2085.7,-708.5C2313.2,-774.4 2485.6,-249.4 2451,282.6C2416.4,814.6 2197.1,1200 1960.3,1218C1454.3,1256.6 721.1,596.3 1595,226.9C2167.4,-15 1959.3,-671.9 2085.7,-708.5ZM2109.9,-706.1C2339.2,-765.5 2496.7,-235.9 2447,295C2397.3,825.8 2167.3,1204.8 1930.1,1216.1C1423.2,1240.4 709,559.6 1593,215C2171.9,-10.6 1982.5,-673.1 2109.9,-706.1ZM2133.9,-703C2364.8,-755.9 2507.2,-222 2442.6,307.2C2378,836.4 2137.3,1208.7 1899.8,1213.4C1392.4,1223.3 697.7,522.6 1591.1,203.2C2176.2,-6 2005.6,-673.6 2133.9,-703ZM2157.8,-699.2C2390.1,-745.5 2517.4,-207.8 2437.8,319.3C2358.2,846.5 2107.1,1211.8 1869.6,1209.8C1362.2,1205.4 687.5,485.3 1589.6,191.3C2180.4,-1.3 2028.8,-673.4 2157.8,-699.2ZM2181.6,-694.7C2415.1,-734.5 2527.2,-193.4 2432.7,331.3C2338.3,856 2076.9,1214.1 1839.6,1205.4C1332.5,1186.6 678.5,447.8 1588.5,179.4C2184.5,3.5 2051.9,-672.6 2181.6,-694.7ZM2205.3,-689.6C2439.8,-722.7 2536.6,-178.7 2427.3,343.1C2318,864.9 2046.7,1215.5 1809.7,1200C1303.3,1166.9 670.5,409.9 1587.7,167.3C2188.4,8.5 2075,-671.2 2205.3,-689.6ZM2228.8,-683.8C2464.2,-710.3 2545.5,-163.7 2421.5,354.8C2297.5,873.3 2016.4,1216.1 1779.9,1193.9C1274.7,1146.5 663.5,371.9 1587.2,155.3C2192.2,13.5 2098.1,-669.1 2228.8,-683.8ZM2252.2,-677.3C2488.2,-697.1 2554,-148.5 2415.5,366.3C2277,881.1 1986.2,1215.8 1750.5,1187C1246.8,1125.3 657.7,333.8 1587.2,143.4C2195.9,18.7 2121.1,-666.3 2252.2,-677.3ZM2275.4,-670.2C2511.9,-683.4 2562.1,-133.1 2409.1,377.6C2256.1,888.3 1956,1214.6 1721.1,1179.1C1219.3,1103.2 652.9,295.3 1587.4,131.3C2199.4,23.9 2144,-662.9 2275.4,-670.2ZM2298.3,-662.4C2535.1,-668.9 2569.8,-117.4 2402.4,388.8C2235,895 1925.8,1212.7 1692,1170.6C1192.6,1080.6 649.2,257 1587.9,119.4C2202.8,29.3 2166.8,-658.8 2298.3,-662.4ZM2321,-654C2557.9,-653.8 2577,-101.5 2395.3,399.7C2213.6,900.9 1895.6,1209.8 1663.1,1161.1C1166.4,1057 646.6,218.3 1588.8,107.4C2206,34.7 2189.4,-654.1 2321,-654ZM2343.5,-645C2580.3,-638.1 2583.7,-85.5 2388,410.4C2192.3,906.3 1865.6,1206 1634.6,1150.8C1141,1032.7 645.1,179.7 1590.1,95.4C2209,40.2 2212,-648.8 2343.5,-645ZM2365.7,-635.3C2602.2,-621.6 2590.1,-69.2 2380.3,420.9C2170.6,911 1835.6,1201.5 1606.3,1139.7C1116.3,1007.7 644.7,141 1591.7,83.5C2211.9,45.9 2234.3,-642.8 2365.7,-635.3ZM2387.7,-624.9C2623.7,-604.6 2595.9,-52.7 2372.5,431.3C2149.1,915.3 1805.9,1196.1 1578.4,1127.9C1092.3,982.1 645.4,102.4 1593.6,71.7C2214.7,51.5 2256.5,-636.2 2387.7,-624.9ZM2409.3,-614C2644.6,-587 2601.3,-36.2 2364.2,441.3C2127.1,918.8 1776.2,1189.8 1550.8,1115.2C1069,955.7 647.1,63.7 1595.8,59.9C2217.2,57.3 2278.5,-629 2409.3,-614ZM2430.6,-602.5C2665.1,-568.9 2606.2,-19.5 2355.7,451.1C2105.2,921.7 1746.8,1182.8 1523.5,1101.8C1046.5,928.7 649.9,25.2 1598.4,48.2C2219.6,63.2 2300.3,-621.2 2430.6,-602.5ZM2451.6,-590.3C2685,-550.1 2610.6,-2.5 2346.9,460.8C2083.2,924.1 1717.6,1174.9 1496.7,1087.6C1024.7,901.1 653.9,-13.3 1601.3,36.5C2221.9,69.1 2321.9,-612.7 2451.6,-590.3ZM2472.2,-577.6C2704.4,-530.8 2614.5,14.4 2337.9,470.1C2061.3,925.8 1688.6,1166.1 1470.3,1072.6C1003.7,872.9 658.9,-51.6 1604.6,24.9C2223.9,75 2343.2,-603.6 2472.2,-577.6Z" style="fill:none;fill-rule:nonzero;stroke:rgb(118,201,234);stroke-width:1px;"/>
        </g>
    </g>
</svg>
